<mxfile host="65bd71144e">
    <diagram id="nDIDQxm9bHd9AL-3DHXK" name="Page-1">
        <mxGraphModel dx="782" dy="659" grid="1" gridSize="10" guides="1" tooltips="1" connect="1" arrows="1" fold="1" page="1" pageScale="1" pageWidth="850" pageHeight="1100" math="0" shadow="0">
            <root>
                <mxCell id="0"/>
                <mxCell id="1" parent="0"/>
                <mxCell id="34" value="" style="rounded=1;whiteSpace=wrap;html=1;dashed=1;" vertex="1" parent="1">
                    <mxGeometry x="45" y="290" width="890" height="270" as="geometry"/>
                </mxCell>
                <mxCell id="4" value="" style="edgeStyle=none;html=1;flowAnimation=1;" edge="1" parent="1" source="2" target="3">
                    <mxGeometry relative="1" as="geometry"/>
                </mxCell>
                <mxCell id="2" value="corpus" style="rounded=1;whiteSpace=wrap;html=1;" vertex="1" parent="1">
                    <mxGeometry x="70" y="100" width="120" height="60" as="geometry"/>
                </mxCell>
                <mxCell id="6" value="" style="edgeStyle=none;html=1;flowAnimation=1;" edge="1" parent="1" source="19" target="5">
                    <mxGeometry relative="1" as="geometry"/>
                </mxCell>
                <mxCell id="20" value="" style="edgeStyle=none;html=1;" edge="1" parent="1" source="3" target="19">
                    <mxGeometry relative="1" as="geometry"/>
                </mxCell>
                <mxCell id="3" value="sub-word&amp;nbsp;&lt;div&gt;tokenization&lt;div&gt;BPE&lt;/div&gt;&lt;/div&gt;" style="whiteSpace=wrap;html=1;rounded=1;" vertex="1" parent="1">
                    <mxGeometry x="270" y="100" width="120" height="60" as="geometry"/>
                </mxCell>
                <mxCell id="8" value="" style="edgeStyle=none;html=1;flowAnimation=1;" edge="1" parent="1" source="5" target="7">
                    <mxGeometry relative="1" as="geometry"/>
                </mxCell>
                <mxCell id="5" value="input - output pairs matrix" style="whiteSpace=wrap;html=1;rounded=1;" vertex="1" parent="1">
                    <mxGeometry x="600" y="100" width="120" height="60" as="geometry"/>
                </mxCell>
                <mxCell id="10" value="" style="edgeStyle=none;html=1;flowAnimation=1;" edge="1" parent="1" source="7" target="9">
                    <mxGeometry relative="1" as="geometry"/>
                </mxCell>
                <mxCell id="7" value="Token Embedding&lt;div&gt;multi dim vectors&lt;/div&gt;" style="whiteSpace=wrap;html=1;rounded=1;" vertex="1" parent="1">
                    <mxGeometry x="770" y="100" width="120" height="60" as="geometry"/>
                </mxCell>
                <mxCell id="12" value="" style="edgeStyle=none;html=1;exitX=0.58;exitY=1.04;exitDx=0;exitDy=0;exitPerimeter=0;flowAnimation=1;" edge="1" parent="1">
                    <mxGeometry relative="1" as="geometry">
                        <mxPoint x="833.5999999999999" y="272.4" as="sourcePoint"/>
                        <mxPoint x="833.8630136986301" y="330" as="targetPoint"/>
                    </mxGeometry>
                </mxCell>
                <mxCell id="9" value="Positional Embedding" style="whiteSpace=wrap;html=1;rounded=1;" vertex="1" parent="1">
                    <mxGeometry x="770" y="200" width="120" height="60" as="geometry"/>
                </mxCell>
                <mxCell id="14" value="" style="edgeStyle=none;html=1;flowAnimation=1;" edge="1" parent="1" source="24" target="13">
                    <mxGeometry relative="1" as="geometry"/>
                </mxCell>
                <mxCell id="11" value="Self Attention&lt;div&gt;Q, K, V&lt;/div&gt;" style="whiteSpace=wrap;html=1;rounded=1;" vertex="1" parent="1">
                    <mxGeometry x="780" y="330" width="120" height="60" as="geometry"/>
                </mxCell>
                <mxCell id="16" value="" style="edgeStyle=none;html=1;flowAnimation=1;" edge="1" parent="1" source="13" target="15">
                    <mxGeometry relative="1" as="geometry"/>
                </mxCell>
                <mxCell id="13" value="Attention Scores" style="whiteSpace=wrap;html=1;rounded=1;" vertex="1" parent="1">
                    <mxGeometry x="440" y="330" width="120" height="60" as="geometry"/>
                </mxCell>
                <mxCell id="18" value="" style="edgeStyle=none;html=1;flowAnimation=1;" edge="1" parent="1" source="15" target="17">
                    <mxGeometry relative="1" as="geometry"/>
                </mxCell>
                <mxCell id="15" value="Attention weights" style="whiteSpace=wrap;html=1;rounded=1;" vertex="1" parent="1">
                    <mxGeometry x="280" y="330" width="120" height="60" as="geometry"/>
                </mxCell>
                <mxCell id="23" value="" style="edgeStyle=none;html=1;flowAnimation=1;" edge="1" parent="1" source="17" target="22">
                    <mxGeometry relative="1" as="geometry"/>
                </mxCell>
                <mxCell id="17" value="Causal Attention&lt;div&gt;- Infinity masking&lt;/div&gt;" style="whiteSpace=wrap;html=1;rounded=1;" vertex="1" parent="1">
                    <mxGeometry x="80" y="330" width="120" height="60" as="geometry"/>
                </mxCell>
                <mxCell id="21" value="" style="edgeStyle=none;html=1;flowAnimation=1;" edge="1" parent="1" source="3" target="19">
                    <mxGeometry relative="1" as="geometry">
                        <mxPoint x="425" y="130" as="sourcePoint"/>
                        <mxPoint x="570" y="130" as="targetPoint"/>
                    </mxGeometry>
                </mxCell>
                <mxCell id="19" value="Token IDs" style="whiteSpace=wrap;html=1;rounded=1;" vertex="1" parent="1">
                    <mxGeometry x="430" y="100" width="120" height="60" as="geometry"/>
                </mxCell>
                <mxCell id="27" value="" style="edgeStyle=none;html=1;flowAnimation=1;" edge="1" parent="1" source="22" target="26">
                    <mxGeometry relative="1" as="geometry"/>
                </mxCell>
                <mxCell id="22" value="Masked Multi-head attention" style="whiteSpace=wrap;html=1;rounded=1;" vertex="1" parent="1">
                    <mxGeometry x="80" y="440" width="120" height="60" as="geometry"/>
                </mxCell>
                <mxCell id="25" value="" style="edgeStyle=none;html=1;flowAnimation=1;" edge="1" parent="1" source="11" target="24">
                    <mxGeometry relative="1" as="geometry">
                        <mxPoint x="780" y="360" as="sourcePoint"/>
                        <mxPoint x="580" y="360" as="targetPoint"/>
                    </mxGeometry>
                </mxCell>
                <mxCell id="24" value="Layer Norm 1" style="rounded=1;whiteSpace=wrap;html=1;" vertex="1" parent="1">
                    <mxGeometry x="610" y="330" width="120" height="60" as="geometry"/>
                </mxCell>
                <mxCell id="29" value="" style="edgeStyle=none;html=1;flowAnimation=1;" edge="1" parent="1" source="26" target="28">
                    <mxGeometry relative="1" as="geometry"/>
                </mxCell>
                <mxCell id="26" value="Dropout" style="whiteSpace=wrap;html=1;rounded=1;" vertex="1" parent="1">
                    <mxGeometry x="280" y="440" width="120" height="60" as="geometry"/>
                </mxCell>
                <mxCell id="31" value="" style="edgeStyle=none;html=1;flowAnimation=1;" edge="1" parent="1" source="28" target="30">
                    <mxGeometry relative="1" as="geometry"/>
                </mxCell>
                <mxCell id="28" value="Layer Norm 2" style="whiteSpace=wrap;html=1;rounded=1;" vertex="1" parent="1">
                    <mxGeometry x="440" y="440" width="120" height="60" as="geometry"/>
                </mxCell>
                <mxCell id="33" value="" style="edgeStyle=none;html=1;flowAnimation=1;" edge="1" parent="1" source="30" target="32">
                    <mxGeometry relative="1" as="geometry"/>
                </mxCell>
                <mxCell id="30" value="Feedforward NN" style="whiteSpace=wrap;html=1;rounded=1;" vertex="1" parent="1">
                    <mxGeometry x="610" y="440" width="120" height="60" as="geometry"/>
                </mxCell>
                <mxCell id="37" value="" style="edgeStyle=none;html=1;" edge="1" parent="1" source="32" target="36">
                    <mxGeometry relative="1" as="geometry"/>
                </mxCell>
                <mxCell id="32" value="Dropout" style="whiteSpace=wrap;html=1;rounded=1;" vertex="1" parent="1">
                    <mxGeometry x="780" y="440" width="120" height="60" as="geometry"/>
                </mxCell>
                <mxCell id="35" value="Attention Block" style="text;html=1;align=center;verticalAlign=middle;whiteSpace=wrap;rounded=0;fontStyle=1" vertex="1" parent="1">
                    <mxGeometry x="480" y="520" width="110" height="30" as="geometry"/>
                </mxCell>
                <mxCell id="39" value="" style="edgeStyle=none;html=1;" edge="1" parent="1" source="36" target="38">
                    <mxGeometry relative="1" as="geometry"/>
                </mxCell>
                <mxCell id="36" value="Final Layer Norm" style="whiteSpace=wrap;html=1;rounded=1;" vertex="1" parent="1">
                    <mxGeometry x="780" y="600" width="120" height="60" as="geometry"/>
                </mxCell>
                <mxCell id="41" value="" style="edgeStyle=none;html=1;" edge="1" parent="1" source="38" target="40">
                    <mxGeometry relative="1" as="geometry"/>
                </mxCell>
                <mxCell id="38" value="Output Laye" style="whiteSpace=wrap;html=1;rounded=1;" vertex="1" parent="1">
                    <mxGeometry x="580" y="600" width="120" height="60" as="geometry"/>
                </mxCell>
                <mxCell id="40" value="Logits matrix for next token prediction" style="whiteSpace=wrap;html=1;rounded=1;" vertex="1" parent="1">
                    <mxGeometry x="380" y="600" width="120" height="60" as="geometry"/>
                </mxCell>
            </root>
        </mxGraphModel>
    </diagram>
</mxfile>